<svg xmlns="http://www.w3.org/2000/svg" width="243" height="104" fill="#fff"><path fill-rule="evenodd" d="M191.245 103.446c-28.333 0-51.383-23.079-51.383-51.447 0-28.367 23.05-51.445 51.383-51.445 28.332 0 51.383 23.078 51.383 51.445 0 28.368-23.051 51.447-51.383 51.447zm0-98.635c-25.988 0-47.131 21.168-47.131 47.188 0 26.021 21.143 47.19 47.131 47.19s47.131-21.169 47.131-47.19c0-26.02-21.143-47.188-47.131-47.188zm38.126 57.63v3.84h-18.109V37.719h18.109v3.84H215.69v8.313h12.95v3.721h-12.95v8.848h13.681zm-36.008 3.84l-10.162-28.562h4.784l7.77 23.613h.099l7.769-23.613h4.804l-10.162 28.562h-4.902zM175.63 37.719h4.428v28.562h-4.428V37.719zm-21.509 0h4.428v24.722h13.305v3.84h-17.733V37.719zm-30.87 25.375c2.629 0 4.349-1.444 4.843-3.859h4.112c-.455 4.433-3.993 7.442-8.994 7.442-5.95 0-9.825-4.077-9.825-10.807 0-6.61 3.875-10.786 9.785-10.786 5.357 0 8.618 3.444 8.994 7.541h-4.072c-.435-2.217-2.095-3.979-4.882-3.979-3.302 0-5.476 2.751-5.476 7.224 0 4.572 2.194 7.224 5.515 7.224zm-15.318-20.682a2.469 2.469 0 0 1-2.47-2.454 2.457 2.457 0 0 1 2.47-2.454 2.44 2.44 0 0 1 2.452 2.454 2.452 2.452 0 0 1-2.452 2.454zm-14.685 11.42l3.38.772c4.25.989 5.871 2.652 5.871 5.66 0 3.8-3.538 6.413-8.441 6.413-5.198 0-8.322-2.553-8.717-6.512h4.23c.395 2.177 1.878 3.246 4.487 3.246 2.57 0 4.151-1.069 4.151-2.771 0-1.346-.77-2.137-3.044-2.652l-3.38-.791c-3.953-.911-5.911-2.811-5.911-5.839 0-3.721 3.243-6.274 8.026-6.274 4.843 0 7.986 2.692 8.125 6.531h-4.013c-.238-2.018-1.72-3.285-4.112-3.285-2.313 0-3.855 1.128-3.855 2.791 0 1.306.949 2.196 3.203 2.711zm-15.141 8.926h-.099c-1.146 2.494-3.261 3.899-6.444 3.899-4.527 0-7.294-2.949-7.294-7.719V45.46h4.27v12.647c0 3.167 1.502 4.869 4.447 4.869 3.084 0 4.942-2.138 4.942-5.384V45.46h4.27v20.821h-4.092v-3.523zM55.852 45.262h-.139l-8.599 21.019h-3.281l-8.618-21.019h-.139v21.019h-4.032v-28.56h5.12l9.231 22.761h.158l9.212-22.761h5.139v28.56h-4.052V45.262zm-31.953 17.41c-1.292 1.904-2.623 3.77-4.751 3.808-2.052.038-2.737-1.219-5.092-1.219-2.356 0-3.116 1.181-5.055 1.257-2.052.075-3.609-2.02-4.901-3.922-2.661-3.846-4.675-10.85-1.939-15.572 1.33-2.36 3.763-3.844 6.384-3.883 2.014-.037 3.876 1.334 5.093 1.334 1.216 0 3.381-1.599 5.928-1.447.988.076 3.838.381 5.663 3.082-.152.116-3.383 1.981-3.344 5.902.037 4.682 4.103 6.244 4.141 6.282-.038.115-.645 2.209-2.127 4.378zM13.375 42.685c-.229-1.757.648-3.626 1.639-4.772 1.104-1.337 3.01-2.291 4.572-2.369.191 1.834-.533 3.628-1.6 4.964-1.106 1.299-2.858 2.329-4.611 2.177zm96.693 23.596h-4.269V45.46h4.269v20.821z"/></svg>
